<?xml version="1.0" encoding="UTF-8"?>
<svg id="_图层_2" data-name="图层 2" xmlns="http://www.w3.org/2000/svg" viewBox="0 0 1577.2 1590.67">
    <path fill="current" d="M1152.22,3.11c-16.8,5.08-39.45,22.26-50.78,38.67-6.25,8.59-13.67,29.29-18.36,49.6-44.92,190.22-149.99,354.26-330.83,515.57l-36.32,32.42-25-25.39c-48.43-48.04-117.18-85.93-186.7-101.94-42.96-10.16-139.44-8.98-179.28,1.95-64.84,17.58-126.94,51.17-178.11,96.87-48.43,42.57-98.04,120.69-121.47,191.39C0,878.03-7.04,977.23,7.42,1059.65c7.81,45.31,30.08,116.39,50.39,160.53,43.75,94.52,138.66,200.37,232.79,260.13,83.19,52.73,187.09,91.01,287.86,105.46,51.56,7.42,162.48,6.25,214.04-2.34,160.53-26.17,307.39-91.01,448.39-198.42,79.29-60.54,174.2-151.55,190.61-182.79,17.97-34.37,10.16-83.19-17.19-108.58l-9.76-9.37,16.8-21.87c51.56-68.35,105.07-164.05,137.1-244.9,14.84-37.11,18.75-51.95,18.75-70.31.78-47.65-30.08-81.63-76.55-86.71l-21.87-2.34,15.23-37.11c45.7-112.49,82.8-257.01,83.19-324.97,0-60.15-35.93-104.68-94.91-117.57-35.93-7.42-83.19,10.94-105.07,41.01-4.69,6.64-15.23,21.09-23.44,32.42-7.81,11.33-15.62,19.14-16.8,17.58s-7.42-29.29-13.28-61.32c-14.45-78.51-30.08-134.36-42.96-156.23-10.94-18.75-36.32-39.45-57.81-47.65-14.45-5.08-54.29-5.86-70.7-1.17Z"/>
</svg>